<svg height="960" viewBox="0 0 960 960" width="960" xmlns="http://www.w3.org/2000/svg"><g fill="none" fill-rule="evenodd" stroke="#000" stroke-linecap="round" stroke-linejoin="round"><ellipse cx="572.485665" cy="485.635373" rx="140.225897" ry="152.040757" stroke-width="20"/><path d="m302.131926 156 512.410232 6.544802c27.211188.347356 49.270215 23.940918 49.270215 52.697695v541.515006c0 28.756777-22.059027 52.350339-49.270215 52.697695l-512.410232 6.544802c-27.211188.343569-49.270214-23.249992-49.270214-52.701481v-554.597038c0-29.451489 22.059026-53.04505 49.270214-52.701481z" stroke-width="20"/><path d="m294.725806 146 527.548388 6.74313c28.015089.357882 50.725806 24.6664 50.725806 54.294594v557.924552c0 29.628194-22.710717 53.936712-50.725806 54.294594l-527.548388 6.74313c-2.083235.026322-4.137139-.083729-6.154555-.322494l-.165222.322494c-74.384532-17.262173-125.170494-29.708727-152.357884-37.339662-40.7810864-11.446402-41.048145-40.248864-41.048145-57.30805v-484.445552c0-60.989482 25.515906-71.5437 44.387782-75.38598 2.390438-.486688 6.092973-1.188006 11.107605-2.103953l1.627183-.29638c21.998853-3.996284 66.681362-11.703092 134.047526-23.120423l.415572.600731c2.650261-.429491 5.369255-.635742 8.140138-.600731z" stroke-width="40"/></g></svg>